<?xml version="1.0" encoding="utf-8"?>
<!-- Generator: Adobe Illustrator 27.1.1, SVG Export Plug-In . SVG Version: 6.00 Build 0)  -->
<svg version="1.1" id="Layer_1" xmlns="http://www.w3.org/2000/svg" xmlns:xlink="http://www.w3.org/1999/xlink" x="0px" y="0px"
	 viewBox="0 0 512 512" style="enable-background:new 0 0 512 512;" xml:space="preserve">
<style type="text/css">
	.st0{fill:#EDEDED;}
	.st1{opacity:0.5;fill:#FFFFFF;enable-background:new    ;}
	.st2{fill:#DBD8D5;}
	.st3{fill:#E0F7F7;}
	.st4{fill:#F5FFFF;}
	.st5{fill:#363D54;}
	.st6{opacity:0.3;fill:#FFFFFF;enable-background:new    ;}
</style>
<g>
	<circle class="st0" cx="243.5" cy="243.5" r="232"/>
	<path class="st1" d="M50.8,246.8c-4.2,0-7.6-3.4-7.6-7.6c0-66.1,33.7-126.4,90.2-161.2c3.6-2.2,8.2-1.1,10.4,2.5
		c2.2,3.6,1.1,8.2-2.5,10.4c-52,32.1-83,87.5-83,148.4C58.3,243.4,55,246.8,50.8,246.8z"/>
	<g>
		<path class="st2" d="M475.4,243.5c0,128.1-103.9,232-232,232c-77.9,0-146.9-38.4-188.9-97.4c37.9,27.1,84.4,43.1,134.6,43.1
			c128.1,0,232-103.9,232-232c0-50.2-15.9-96.6-43.1-134.6C437,96.5,475.4,165.5,475.4,243.5z"/>
		<path class="st2" d="M389.4,147.3c12.7,38.5-2.7,78.1-34.5,88.7c-31.8,10.5-67.8-12.1-80.5-50.6c-12.7-38.5,2.6-78.1,34.4-88.6
			C340.6,86.2,376.6,108.8,389.4,147.3L389.4,147.3z"/>
		<path class="st2" d="M239.4,118.7c7.6,23-1.6,46.8-20.6,53.1c-19,6.3-40.6-7.3-48.2-30.3c-7.6-23,1.6-46.8,20.6-53.1
			C210.2,82.1,231.8,95.6,239.4,118.7z"/>
		<path class="st2" d="M158.4,285.7c31.1-10.3,63.2,2.2,71.7,27.9c8.5,25.7-9.8,54.8-40.9,65.1s-63.2-2.1-71.7-27.8
			C109,325.2,127.3,296,158.4,285.7L158.4,285.7z"/>
	</g>
	<path class="st3" d="M286.9,406.4h203.2c7.2,0,12.4-7.3,9.7-14c-5.5-13.8-19-23.4-34.8-23.4c-2.6,0-5.2,0.3-7.7,0.8
		c0.1-1.3,0.2-2.6,0.2-3.8c0-28.7-23.3-51.9-51.9-51.9c-20.3,0-37.8,11.6-46.3,28.5c-4.4-2.2-9.4-3.5-14.6-3.5
		c-17.2,0-31.1,13.1-32.5,30H312c-15.7,0-29.2,9.7-34.8,23.4C274.5,399.1,279.7,406.4,286.9,406.4L286.9,406.4z"/>
	<path class="st4" d="M490.1,406.4H286.9c-7.2,0-12.4-7.3-9.7-14c0.5-1.1,1-2.2,1.5-3.2c22.6,10.4,53.8,13.3,86.3,5.9
		c40.2-9.1,71.8-31.3,84.8-56.4c4.9,7.9,7.7,17.3,7.7,27.2c0,1.3-0.1,2.6-0.2,3.8c2.5-0.5,5-0.8,7.7-0.8c15.7,0,29.2,9.7,34.8,23.4
		C502.5,399.1,497.3,406.4,490.1,406.4L490.1,406.4z"/>
	<path class="st3" d="M21.4,500.5H303c6.4,0,11.2-6,9.7-12.3c-5.5-21.6-25.1-37.7-48.4-37.7c-3.5,0-7,0.3-10.2,1.1
		c0.1-1.7,0.2-3.4,0.2-5.1c0-38.2-31-69.2-69.2-69.2c-27,0-50.4,15.4-61.8,38c-5.8-3-12.5-4.6-19.5-4.6c-22.8,0-41.5,17.5-43.3,39.9
		h-0.2c-23.4,0-43,16-48.4,37.7C10.2,494.5,15,500.5,21.4,500.5L21.4,500.5z"/>
	<path class="st4" d="M303,500.5H21.4c-6.4,0-11.2-6-9.7-12.3c1.4-5.7,3.8-11,7.1-15.7c27.7,16.1,70.9,21.2,116.3,10.9
		c53.5-12,94.9-41.9,108.2-74c6.9,10.7,10.8,23.5,10.8,37.1c0,1.7-0.1,3.4-0.2,5.1c3.3-0.7,6.8-1,10.3-1c23.3,0,42.9,16,48.4,37.6
		C314.3,494.5,309.5,500.5,303,500.5z"/>
	<g>
		<g>
			<path class="st5" d="M210.2,256.2c-10.1,10.1-26.5,10.1-36.6,0c-10.1-10.1-10.1-26.5,0-36.6c10.1-10.1,26.6-10.1,36.6,0
				C220.4,229.6,220.4,246.1,210.2,256.2z"/>
			<path class="st5" d="M267,335.7c-0.6-4.7-2.8-9.3-6.5-13c-8.9-8.9-23.2-8.9-32.1,0c-1.4,1.4-2.6,3-3.6,4.6
				c1.9-7.5,0-15.8-5.9-21.7c-8.9-8.9-23.2-8.9-32.1,0l-0.2,0.2c5.2-8.7,4-20.1-3.5-27.5c-7.9-7.9-20.3-8.8-29.1-2.5
				c6.3-8.9,5.4-21.2-2.5-29.1c-7.5-7.5-18.8-8.7-27.5-3.5l0.2-0.2c8.9-8.9,8.9-23.2,0-32.1c-5.8-5.8-14.1-7.9-21.6-6
				c1.6-1,3.1-2.1,4.5-3.5c8.9-8.9,8.9-23.2,0-32.1c-3.7-3.7-8.3-5.8-13-6.5c44.4-10.5,77.9,17.4,77.9,69.2l25.8,25.8
				C249.5,257.8,277.4,291.2,267,335.7L267,335.7z"/>
			<g>
				<path class="st5" d="M204.4,218.6l-18.4-3.8l11.2-17.7c1.1-1.7,3.6-1.1,3.9,0.8L204.4,218.6z"/>
				<path class="st5" d="M211.2,225.3l3.8,18.4l17.7-11.2c1.7-1.1,1.1-3.6-0.8-3.9L211.2,225.3z"/>
			</g>
		</g>
		<g>
			<path class="st0" d="M210.8,241.9c-1.9,1.9-5,1.9-6.9,0s-1.9-5,0-6.9c1.9-1.9,5-1.9,6.9,0C212.7,236.9,212.7,240,210.8,241.9z"/>
			<path class="st0" d="M194.8,225.9c-1.9,1.9-5,1.9-6.9,0c-1.9-1.9-1.9-5,0-6.9c1.9-1.9,5-1.9,6.9,0S196.7,224,194.8,225.9z"/>
		</g>
	</g>
	<path class="st6" d="M405.9,329.1c1.5,4.1-3.2,9.6-10.5,12.1c-7.3,2.6-14.4,1.3-15.8-2.8c-1.5-4.1,3.3-9.6,10.6-12.1
		C397.4,323.7,404.4,325,405.9,329.1z"/>
	<path class="st6" d="M186.7,396.7c2,5.7-5.7,13.4-17,17.4c-11.4,4-22.3,2.8-24.3-2.9c-2-5.6,5.7-13.4,17.1-17.4
		C173.9,389.8,184.7,391.1,186.7,396.7z"/>
</g>
</svg>
