<svg height="512" viewBox="0 0 48 48" width="512" xmlns="http://www.w3.org/2000/svg"><g id="_13-shawer" data-name="13-shawer"><path d="m6 12c0-.113 0 .114 0 0a11 11 0 0 1 11-11 11.784 11.784 0 0 1 10 6c1.017-.469 2-2 6-2 3.807 0 7.192 3.437 8 7 3.1 1.7 6 5.215 6 9a10 10 0 0 1 -10 10h-26a10 10 0 0 1 -10-10 10.537 10.537 0 0 1 5-9z" fill="#bec3d2"/><path d="m47 21c0-3.78-2.9-7.3-6-9a9.69 9.69 0 0 0 -3.03-4.97 7.626 7.626 0 0 0 -4.97-2.03 8.821 8.821 0 0 0 -4.18.85c-.83.43-1.32.92-1.82 1.15a11.784 11.784 0 0 0 -10-6 10.986 10.986 0 0 0 -10.959 10.189 10.94 10.94 0 0 1 4.959-1.189 11.784 11.784 0 0 1 10 6c.5-.23.99-.72 1.82-1.15a8.821 8.821 0 0 1 4.18-.85 7.626 7.626 0 0 1 4.97 2.03 9.69 9.69 0 0 1 3.03 4.97c3.1 1.7 6 5.22 6 9 0 .056-.007.11-.008.165a10 10 0 0 0 6.008-9.165z" fill="#dce1eb"/><ellipse cx="21.682" cy="5.708" fill="#fafcff" rx=".825" ry="1.148" transform="matrix(.707 -.707 .707 .707 2.318 17.01)"/><g fill="#70e1ff"><path d="m36 37a1 1 0 0 1 -1-1v-3a1 1 0 0 1 2 0v3a1 1 0 0 1 -1 1z"/><path d="m30 40a1 1 0 0 1 -1-1v-2a1 1 0 0 1 2 0v2a1 1 0 0 1 -1 1z"/><path d="m36 42a1 1 0 0 1 -1-1v-2a1 1 0 0 1 2 0v2a1 1 0 0 1 -1 1z"/><path d="m12 35a1 1 0 0 1 -1-1v-2a1 1 0 0 1 2 0v2a1 1 0 0 1 -1 1z"/><path d="m12 45a1 1 0 0 1 -1-1v-3a1 1 0 0 1 2 0v3a1 1 0 0 1 -1 1z"/><path d="m12 39a1 1 0 0 1 -1-1v-1a1 1 0 0 1 2 0v1a1 1 0 0 1 -1 1z"/><path d="m24 38a1 1 0 0 1 -1-1v-3a1 1 0 0 1 2 0v3a1 1 0 0 1 -1 1z"/><path d="m24 47a1 1 0 0 1 -1-1v-1a1 1 0 0 1 2 0v1a1 1 0 0 1 -1 1z"/><path d="m24 42a1 1 0 0 1 -1-1v-1a1 1 0 0 1 2 0v1a1 1 0 0 1 -1 1z"/><path d="m18 38a1 1 0 0 1 -1-1v-1a1 1 0 0 1 2 0v1a1 1 0 0 1 -1 1z"/><path d="m18 34a1 1 0 0 1 -1-1v-1a1 1 0 0 1 2 0v1a1 1 0 0 1 -1 1z"/><path d="m18 44a1 1 0 0 1 -1-1v-1a1 1 0 0 1 2 0v1a1 1 0 0 1 -1 1z"/><path d="m30 44a1 1 0 0 1 -1-1v-1a1 1 0 0 1 2 0v1a1 1 0 0 1 -1 1z"/><path d="m30 48a1 1 0 0 1 -1-1v-1a1 1 0 0 1 2 0v1a1 1 0 0 1 -1 1z"/><path d="m36 46a1 1 0 0 1 -1-1v-1a1 1 0 0 1 2 0v1a1 1 0 0 1 -1 1z"/><path d="m29 34a1 1 0 0 0 2 0v-3h-2z"/><path d="m24 32a1 1 0 0 0 1-1h-2a1 1 0 0 0 1 1z"/></g><rect fill="#c4f3ff" height="3" rx=".5" width="1" x="32" y="37"/><rect fill="#c4f3ff" height="3" rx=".5" width="1" x="38" y="32"/><rect fill="#c4f3ff" height="3" rx=".5" width="1" x="38" y="39"/><rect fill="#c4f3ff" height="3" rx=".5" width="1" x="33" y="45"/><rect fill="#c4f3ff" height="3" rx=".5" width="1" x="27" y="40"/><rect fill="#c4f3ff" height="3" rx=".5" width="1" x="20" y="33"/><rect fill="#c4f3ff" height="3" rx=".5" width="1" x="20" y="40"/><rect fill="#c4f3ff" height="3" rx=".5" width="1" x="14" y="44"/><rect fill="#c4f3ff" height="3" rx=".5" width="1" x="14" y="35"/><rect fill="#c4f3ff" height="3" rx=".5" width="1" x="20" y="45"/><rect fill="#c4f3ff" height="3" rx=".5" width="1" x="9" y="33"/><rect fill="#c4f3ff" height="3" rx=".5" width="1" x="9" y="43"/><ellipse cx="35.684" cy="9.695" fill="#fafcff" rx="1.642" ry="2.286" transform="matrix(.707 -.707 .707 .707 3.603 28.083)"/><ellipse cx="38.427" cy="11.208" fill="#fafcff" rx=".413" ry=".574" transform="matrix(.707 -.707 .707 .707 3.336 30.467)"/></g></svg>