<?xml version="1.0" encoding="utf-8"?>
<!-- Generator: Adobe Illustrator 27.1.1, SVG Export Plug-In . SVG Version: 6.00 Build 0)  -->
<svg version="1.1" id="Capa_1" xmlns="http://www.w3.org/2000/svg" xmlns:xlink="http://www.w3.org/1999/xlink" x="0px" y="0px"
	 viewBox="0 0 512 512" style="enable-background:new 0 0 512 512;" xml:space="preserve">
<style type="text/css">
	.st0{fill:#F4F4F4;}
	.st1{fill:#D8D8D8;}
	.st2{fill:#C8EFFE;}
	.st3{fill:#99E6FC;}
	.st4{fill:#01D0FB;}
</style>
<g>
	<ellipse class="st0" cx="322.9" cy="190.8" rx="114.5" ry="114.5"/>
	<path class="st1" d="M376.6,89.5c23.2,23.2,36.2,56.2,33,91.4c-5.8,63-61.5,109.4-124.5,103.6c-15.6-1.4-30.2-5.9-43.2-12.8
		c18.3,18.3,42.8,30.6,70.6,33.1c63,5.8,118.7-40.6,124.5-103.6C441.3,153.8,416.2,110.5,376.6,89.5z"/>
	<path class="st2" d="M428.8,317.8c-0.1,0-0.3,0-0.4,0c-5.3-0.5-9.4-4.9-9.3-10.3c0-0.1,0-0.2,0-0.3c0-37.8-30.7-68.5-68.5-68.5
		c-13,0-25.2,3.6-35.5,9.9c-4.4,2.7-10.1,1.5-13.2-2.5c-9.5-12.2-24.3-20-41-20c-3.7,0-7.3,0.4-10.7,1.1c-4.9,1-9.7-1.6-11.6-6.2
		c-13.4-33.1-45.8-56.4-83.7-56.4c-49.9,0-90.3,40.4-90.3,90.3c0,1.5,0,2.9,0.1,4.3c0.2,4.8-3,9.1-7.7,10.3
		c-33.7,9.2-58.2,40.7-56.8,77.7c1.6,41.7,36.6,74.3,78.4,74.3h345.1c29.9,0,53.9-25.2,51.9-55.5C473.8,341,454,320.4,428.8,317.8
		L428.8,317.8z"/>
	<path class="st3" d="M435.3,318.9c6.2,8.5,9.8,19,9.8,30.4c0,28.7-23.3,52-52,52c-27.8,0-303.8,0-346.2,0c-9.3,0-18.2-1.6-26.4-4.6
		c14.1,15.3,34.4,24.9,56.9,24.9h346.2c28.7,0,52-23.3,52-52C475.6,344.9,458.4,324.3,435.3,318.9z"/>
	<path class="st2" d="M325.9,489.9c0,11.3-9.2,20.4-20.4,20.4c-11.3,0-20.4-9.1-20.4-20.4c0-15,15.3-28.8,19.4-32.2
		c0.6-0.5,1.4-0.5,2,0C310.6,461.1,325.9,474.9,325.9,489.9z"/>
	<path class="st4" d="M425.7,489.9c0,11.3-9.2,20.4-20.4,20.4c-11.3,0-20.4-9.1-20.4-20.4c0-15,15.3-28.8,19.4-32.2
		c0.6-0.5,1.4-0.5,2,0C410.4,461.1,425.7,474.9,425.7,489.9L425.7,489.9z"/>
	<path class="st2" d="M116.9,489.9c0,11.3-9.2,20.4-20.4,20.4S76,501.1,76,489.9c0-15,15.3-28.8,19.4-32.2c0.6-0.5,1.4-0.5,2,0
		C101.6,461.1,116.9,474.9,116.9,489.9z"/>
	<path class="st4" d="M216.7,489.9c0,11.3-9.2,20.4-20.4,20.4s-20.4-9.1-20.4-20.4c0-15,15.3-28.8,19.4-32.2c0.6-0.5,1.4-0.5,2,0
		C201.4,461.1,216.7,474.9,216.7,489.9L216.7,489.9z"/>
</g>
</svg>
