<svg id="Capa_1" enable-background="new 0 0 512 512" height="512" viewBox="0 0 512 512" width="512" xmlns="http://www.w3.org/2000/svg"><path d="m259.625 312-41.377 10.063-9.633 33.714c-1.084 3.795 1.765 7.572 5.712 7.572h41.673l-27.165 95.08c-1.325 4.637 4.645 7.772 7.71 4.049l91.714-111.371c4.116-4.998.561-12.532-5.914-12.532h-25.055l8.257-16.512z" fill="#ffe07d"/><path d="m218.248 322.063h87.299l8.259-16.517-46.306-7.546-44.532 7.546z" fill="#ffd064"/><path d="m230.519 25.823c-52.53-6.969-99.236 21.401-119.972 64.617-3.062 6.382-9.712 10.426-16.721 9.443-7.574-1.063-15.477-1.093-23.609.168-40.056 6.21-70.603 41.905-70.213 82.437.436 45.234 37.24 81.768 82.577 81.768 25.875 0 48.95-11.917 64.091-30.544 19.104 13.952 42.57 22.286 68.038 22.286 68.308 0 122.78-59.24 114.843-129.147-5.891-51.876-47.278-94.161-99.034-101.028z" fill="#c8c5c9"/><path d="m461.24 133.275c-4.559-2.246-7.8-6.586-8.617-11.602-8.945-54.946-56.568-96.9-114.043-96.9-31.645 0-60.289 12.742-81.159 33.346-4.5 4.442-11.044 5.817-17.047 3.831-4.23-1.4-8.608-2.473-13.109-3.175-4.091-.638-9.493.725-13.766.725-36.521 0-61.107 27.634-72 60.5-1.899 5.728-3.566 9.901-9.5 11-43.5 8.059-60.041 41.526-58 87.817 2.162 49.013 20.123 79.183 69.184 79.183h275.247l53.638-8.97c22.68-15.427 38.276-40.395 39.802-69.423 1.99-37.831-19.213-70.856-50.63-86.332z" fill="#eceaec"/><path d="m209.251 289.03c-43.738 0-81.995-32.824-85.157-76.448-1.812-24.989 7.55-47.761 23.553-63.987 5.48-5.556 9.01-12.577 10.145-20.297 2.492-16.945 10.257-33.265 23.299-46.307 13.009-13.009 29.277-20.729 46.175-23.217-4.093-.639-8.281-.97-12.556-.97-36.519 0-67.484 23.711-78.379 56.574-1.9 5.732-6.665 10.011-12.602 11.112-43.496 8.062-76.13 47.038-74.089 93.326 2.161 49.014 44.483 86.731 93.545 86.731h275.247c19.631 0 38.306-6.119 53.638-16.516z" fill="#dad8db"/><path d="m74.322 487.228c-.823 0-1.661-.125-2.484-.387-4.355-1.375-6.766-6.012-5.387-10.363l7.823-24.778c1.363-4.347 6.024-6.762 10.355-5.387 4.355 1.375 6.766 6.012 5.387 10.363l-7.823 24.778c-1.105 3.52-4.363 5.774-7.871 5.774z" fill="#dbeaff"/><path d="m92.58 429.417c-.823 0-1.661-.125-2.484-.387-4.355-1.375-6.766-6.012-5.387-10.363l7.823-24.774c1.363-4.343 6.024-6.762 10.355-5.387 4.355 1.375 6.766 6.012 5.387 10.363l-7.823 24.774c-1.104 3.52-4.363 5.774-7.871 5.774z" fill="#c3ddff"/><path d="m110.395 372.99c-.823 0-1.661-.125-2.484-.387-4.355-1.375-6.766-6.012-5.387-10.363l8.258-26.153c1.363-4.347 6.032-6.758 10.355-5.387 4.355 1.375 6.766 6.012 5.387 10.363l-8.258 26.153c-1.105 3.52-4.363 5.774-7.871 5.774z" fill="#dbeaff"/><path d="m123.871 487.228c-.823 0-1.661-.125-2.484-.387-4.355-1.375-6.766-6.012-5.387-10.363l7.823-24.778c1.363-4.347 6.024-6.762 10.355-5.387 4.355 1.375 6.766 6.012 5.387 10.363l-7.823 24.778c-1.105 3.52-4.363 5.774-7.871 5.774z" fill="#c3ddff"/><path d="m142.129 429.417c-.823 0-1.661-.125-2.484-.387-4.355-1.375-6.766-6.012-5.387-10.363l7.823-24.774c1.363-4.343 6.024-6.762 10.355-5.387 4.355 1.375 6.766 6.012 5.387 10.363l-7.823 24.774c-1.105 3.52-4.363 5.774-7.871 5.774z" fill="#dbeaff"/><path d="m159.943 372.99c-.823 0-1.661-.125-2.484-.387-4.355-1.375-6.766-6.012-5.387-10.363l8.258-26.153c1.363-4.347 6.032-6.758 10.355-5.387 4.355 1.375 6.766 6.012 5.387 10.363l-8.258 26.153c-1.105 3.52-4.363 5.774-7.871 5.774z" fill="#c3ddff"/><path d="m173.419 487.228c-.823 0-1.661-.125-2.484-.387-4.355-1.375-6.766-6.012-5.387-10.363l7.823-24.778c1.363-4.347 6.024-6.762 10.355-5.387 4.355 1.375 6.766 6.012 5.387 10.363l-7.823 24.778c-1.105 3.52-4.363 5.774-7.871 5.774z" fill="#dbeaff"/><path d="m191.677 429.417c-.823 0-1.661-.125-2.484-.387-4.355-1.375-6.766-6.012-5.387-10.363l7.823-24.774c1.363-4.343 6.024-6.762 10.355-5.387 4.355 1.375 6.766 6.012 5.387 10.363l-7.823 24.774c-1.105 3.52-4.363 5.774-7.871 5.774z" fill="#c3ddff"/><path d="m272.516 487.228c-.823 0-1.661-.125-2.484-.387-4.355-1.375-6.766-6.012-5.387-10.363l7.823-24.778c1.363-4.347 6.024-6.762 10.355-5.387 4.355 1.375 6.766 6.012 5.387 10.363l-7.823 24.778c-1.105 3.52-4.363 5.774-7.871 5.774z" fill="#dbeaff"/><path d="m322.064 487.228c-.823 0-1.661-.125-2.484-.387-4.355-1.375-6.766-6.012-5.387-10.363l7.823-24.778c1.363-4.347 6.024-6.762 10.355-5.387 4.355 1.375 6.766 6.012 5.387 10.363l-7.823 24.778c-1.104 3.52-4.363 5.774-7.871 5.774z" fill="#c3ddff"/><path d="m340.322 429.417c-.823 0-1.661-.125-2.484-.387-4.355-1.375-6.766-6.012-5.387-10.363l7.823-24.774c1.371-4.343 6.024-6.762 10.355-5.387 4.355 1.375 6.766 6.012 5.387 10.363l-7.823 24.774c-1.104 3.52-4.362 5.774-7.871 5.774z" fill="#dbeaff"/><path d="m358.137 372.99c-.823 0-1.661-.125-2.484-.387-4.355-1.375-6.766-6.012-5.387-10.363l8.258-26.153c1.363-4.347 6.024-6.758 10.355-5.387 4.355 1.375 6.766 6.012 5.387 10.363l-8.258 26.153c-1.105 3.52-4.363 5.774-7.871 5.774z" fill="#c3ddff"/><path d="m371.613 487.228c-.823 0-1.661-.125-2.484-.387-4.355-1.375-6.766-6.012-5.387-10.363l7.823-24.778c1.363-4.347 6.024-6.762 10.355-5.387 4.355 1.375 6.766 6.012 5.387 10.363l-7.823 24.778c-1.105 3.52-4.363 5.774-7.871 5.774z" fill="#dbeaff"/><path d="m389.871 429.417c-.823 0-1.661-.125-2.484-.387-4.355-1.375-6.766-6.012-5.387-10.363l7.823-24.774c1.371-4.343 6.024-6.762 10.355-5.387 4.355 1.375 6.766 6.012 5.387 10.363l-7.823 24.774c-1.105 3.52-4.363 5.774-7.871 5.774z" fill="#c3ddff"/><path d="m407.685 372.99c-.823 0-1.661-.125-2.484-.387-4.355-1.375-6.766-6.012-5.387-10.363l8.258-26.153c1.363-4.347 6.024-6.758 10.355-5.387 4.355 1.375 6.766 6.012 5.387 10.363l-8.258 26.153c-1.105 3.52-4.362 5.774-7.871 5.774z" fill="#dbeaff"/><path d="m474.353 92.314c-4.805-1.184-8.863-4.345-11.003-8.807-10.858-22.636-32.797-38.938-58.816-41.781-2.675-.292-5.509.128-8.262.128-34.122 0-58.543 27.14-67.271 58.479-1.783 6.403-4.708 19.8-11.333 20.333-5.129.413-14.425-6.316-20-3.333-11.519 6.164-13.898 12.54-15.667 25.484-3.469 25.394 7.09 42.849 31.806 42.849h146.744l38.414-12.249c6.761-7.211 11.378-16.396 12.65-26.77 3.184-25.959-13.733-48.535-37.262-54.333z" fill="#dad8db"/><path d="m412.903 173.417c-36.486 0-66.065-29.578-66.065-66.065 0-33.644 25.169-61.501 57.694-65.623-2.688-.295-5.378-.446-8.145-.446-34.122 0-62.863 22.998-71.591 54.337-1.783 6.403-7.431 11.317-14.056 11.85-5.129.413-10.496 1.895-16.072 4.878-11.52 6.164-19.984 17.524-21.753 30.469-3.469 25.394 16.175 47.111 40.892 47.111h146.745c14.8 0 28.807-6.331 38.414-16.512h-86.063z" fill="#c8c5c9"/></svg>