<svg height="512" viewBox="0 0 32 32" width="512" xmlns="http://www.w3.org/2000/svg"><g id="Layer_2" data-name="Layer 2"><g fill="#ffc166"><path d="m16 5a1 1 0 0 1 -1-1v-2a1 1 0 0 1 2 0v2a1 1 0 0 1 -1 1z"/><path d="m24.49 8.51a1 1 0 0 1 -.71-.29 1 1 0 0 1 0-1.41l1.41-1.42a1 1 0 0 1 1.42 1.42l-1.42 1.41a1 1 0 0 1 -.7.29z"/><path d="m30 17h-2a1 1 0 0 1 0-2h2a1 1 0 0 1 0 2z"/><path d="m25.9 26.9a1 1 0 0 1 -.71-.29l-1.41-1.42a1 1 0 1 1 1.41-1.41l1.42 1.41a1 1 0 0 1 0 1.42 1 1 0 0 1 -.71.29z"/><path d="m16 31a1 1 0 0 1 -1-1v-2a1 1 0 0 1 2 0v2a1 1 0 0 1 -1 1z"/><path d="m6.1 26.9a1 1 0 0 1 -.71-.29 1 1 0 0 1 0-1.42l1.42-1.41a1 1 0 1 1 1.41 1.41l-1.41 1.42a1 1 0 0 1 -.71.29z"/><path d="m4 17h-2a1 1 0 0 1 0-2h2a1 1 0 0 1 0 2z"/><path d="m7.51 8.51a1 1 0 0 1 -.7-.29l-1.42-1.41a1 1 0 0 1 1.42-1.42l1.41 1.42a1 1 0 0 1 0 1.41 1 1 0 0 1 -.71.29z"/><path d="m25 16a9 9 0 0 1 -16.28 5.28c-.14-.19-.27-.39-.39-.59a9 9 0 0 1 12.36-12.36c.2.12.4.25.59.39a8.94 8.94 0 0 1 3.72 7.28z"/></g><path d="m22 13a9 9 0 0 1 -13.67 7.69 9 9 0 0 1 12.36-12.36 8.94 8.94 0 0 1 1.31 4.67z" fill="#ffd64f"/></g></svg>