<svg height="512pt" viewBox="0 0 512 512" width="512pt" xmlns="http://www.w3.org/2000/svg"><path d="m512 256c0 141.386719-114.613281 256-256 256s-256-114.613281-256-256 114.613281-256 256-256 256 114.613281 256 256zm0 0" fill="#e7e7e7"/><path d="m31.25 256c0-136.136719 106.269531-247.433594 240.375-255.511719-5.171875-.3125-10.378906-.488281-15.625-.488281-141.386719 0-256 114.613281-256 256s114.613281 256 256 256c5.246094 0 10.453125-.175781 15.625-.488281-134.105469-8.078125-240.375-119.375-240.375-255.511719zm0 0" fill="#cecece"/><path d="m473.445312 391.136719c-9.914062-20.890625-31.191406-35.339844-55.855468-35.339844-34.125 0-61.792969 27.664063-61.792969 61.792969 0 24.664062 14.449219 45.941406 35.339844 55.855468 33.335937-20.761718 61.546875-48.972656 82.308593-82.308593zm0 0" fill="#cecece"/><path d="m387.046875 417.589844c0-28.730469 19.609375-52.878906 46.175781-59.800782-4.992187-1.300781-10.230468-1.992187-15.632812-1.992187-34.125 0-61.792969 27.664063-61.792969 61.792969 0 24.664062 14.449219 45.941406 35.339844 55.855468 5.355469-3.335937 10.566406-6.882812 15.648437-10.59375-12.140625-11.28125-19.738281-27.382812-19.738281-45.261718zm0 0" fill="#bfbfbf"/><path d="m316.699219 111.15625c0 34.128906-27.667969 61.792969-61.796875 61.792969-34.125 0-61.792969-27.664063-61.792969-61.792969s27.667969-61.796875 61.792969-61.796875c34.128906 0 61.796875 27.667969 61.796875 61.796875zm0 0" fill="#cecece"/><path d="m224.359375 111.15625c0-28.730469 19.605469-52.878906 46.167969-59.796875-4.988282-1.300781-10.222656-2-15.621094-2-34.128906 0-61.796875 27.667969-61.796875 61.796875s27.667969 61.792969 61.796875 61.792969c5.398438 0 10.632812-.695313 15.621094-1.996094-26.5625-6.921875-46.167969-31.066406-46.167969-59.796875zm0 0" fill="#bfbfbf"/><path d="m503.519531 190.464844c-17.859375-67.625-62.691406-124.28125-122.292969-157.777344-12.105468 17.03125-19.21875 37.855469-19.21875 60.339844 0 57.59375 46.6875 104.285156 104.285157 104.285156 13.117187 0 25.664062-2.429688 37.226562-6.847656zm0 0" fill="#cecece"/><path d="m393.253906 93.027344c0-16.496094 3.84375-32.089844 10.664063-45.957032-7.292969-5.171874-14.863281-9.980468-22.691407-14.382812-12.105468 17.03125-19.21875 37.855469-19.21875 60.339844 0 57.59375 46.6875 104.285156 104.285157 104.285156 5.289062 0 10.480469-.414062 15.558593-1.175781-50.152343-7.566407-88.597656-50.847657-88.597656-103.109375zm0 0" fill="#bfbfbf"/><path d="m440.554688 269.84375c0 17.0625-13.835938 30.894531-30.898438 30.894531s-30.898438-13.832031-30.898438-30.894531c0-17.066406 13.835938-30.898438 30.898438-30.898438s30.898438 13.832032 30.898438 30.898438zm0 0" fill="#cecece"/><g fill="#bfbfbf"><path d="m410.007812 269.84375c0-11.363281 6.136719-21.285156 15.273438-26.65625-4.585938-2.691406-9.921875-4.242188-15.625-4.242188-17.0625 0-30.898438 13.832032-30.898438 30.894532 0 17.066406 13.835938 30.898437 30.898438 30.898437 5.703125 0 11.039062-1.550781 15.625-4.246093-9.136719-5.363282-15.273438-15.289063-15.273438-26.648438zm0 0"/><path d="m297.929688 259.28125c0 10.253906-8.3125 18.566406-18.5625 18.566406-10.253907 0-18.5625-8.3125-18.5625-18.566406 0-10.25 8.308593-18.5625 18.5625-18.5625 10.25 0 18.5625 8.3125 18.5625 18.5625zm0 0"/><path d="m307.535156 417.589844c0 7.78125-6.304687 14.085937-14.082031 14.085937-7.78125 0-14.085937-6.304687-14.085937-14.085937 0-7.777344 6.304687-14.082032 14.085937-14.082032 7.777344 0 14.082031 6.304688 14.082031 14.082032zm0 0"/></g></svg>