<?xml version="1.0" encoding="utf-8"?>
<!-- Generator: Adobe Illustrator 27.1.1, SVG Export Plug-In . SVG Version: 6.00 Build 0)  -->
<svg version="1.1" id="Capa_1" xmlns="http://www.w3.org/2000/svg" xmlns:xlink="http://www.w3.org/1999/xlink" x="0px" y="0px"
	 viewBox="0 0 512 512" style="enable-background:new 0 0 512 512;" xml:space="preserve">
<style type="text/css">
	.st0{fill:#737373;}
	.st1{fill:#919191;}
	.st2{fill:#EDEBED;}
	.st3{fill:#DBD9DC;}
</style>
<path class="st0" d="M425.5,166.8c-0.1,0-0.2,0-0.4,0C421.4,110.5,374.7,66,317.5,66c-32.9,0-62.3,14.7-82.1,37.9
	c-6.1-1.2-12.3-1.9-18.8-1.9c-43,0-79.2,29.1-90.1,68.6c-35.4,10.8-61.1,43.7-61.1,82.6c0,47.7,38.7,86.4,86.4,86.4h273.7
	c47.7,0,86.4-38.7,86.4-86.4C511.9,205.5,473.2,166.8,425.5,166.8z"/>
<path class="st1" d="M418.3,310.8H241.1c-47.7,0-88.6-37.4-89.3-85.1c-0.6-35.9,20.8-66.8,51.5-80.3c6.8-3,12.3-8.2,15.3-15
	c4.3-9.7,10-18.6,16.8-26.6c-6.1-1.2-12.3-1.9-18.7-1.9c-43,0-79.2,29.1-90.1,68.6c-36,11-62,44.9-61.1,84.8
	c1.1,47.4,41.8,84.3,89.2,84.3h263.6c8,0,14.4-6.4,14.4-14.4l0,0C432.7,317.3,426.2,310.8,418.3,310.8z"/>
<path class="st2" d="M360.1,240.1c-0.1,0-0.2,0-0.4,0C356,183.8,309.3,139.3,252,139.3c-32.9,0-62.3,14.7-82.1,37.9
	c-6.1-1.2-12.3-1.9-18.8-1.9c-43,0-79.2,29.1-90.1,68.6C25.7,254.7,0,287.6,0,326.5c0,47.7,38.7,86.4,86.4,86.4h273.7
	c47.7,0,86.4-38.7,86.4-86.4C446.5,278.8,407.8,240.1,360.1,240.1z"/>
<path class="st3" d="M352.9,384.1H175.7c-47.7,0-88.6-37.4-89.3-85.1c-0.6-35.9,20.8-66.8,51.5-80.3c6.8-3,12.3-8.2,15.3-15
	c4.3-9.7,10-18.6,16.8-26.6c-6.1-1.2-12.3-1.9-18.7-1.9c-43,0-79.2,29.1-90.1,68.6c-36,11-62,44.9-61.1,84.8
	c1.1,47.4,41.8,84.3,89.2,84.3h263.6c8,0,14.4-6.4,14.4-14.4l0,0C367.3,390.5,360.8,384.1,352.9,384.1z"/>
</svg>
