<svg id="Capa_1" enable-background="new 0 0 504.501 504.501" height="512" viewBox="0 0 504.501 504.501" width="512" xmlns="http://www.w3.org/2000/svg"><g><ellipse cx="318.224" cy="187.957" fill="#ffe177" rx="112.84" ry="112.84" transform="matrix(.707 -.707 .707 .707 -39.7 280.069)"/><path d="m371.072 88.23c22.819 22.879 35.702 55.339 32.519 90.034-5.692 62.059-60.616 107.754-122.675 102.061-15.361-1.409-29.717-5.838-42.542-12.641 17.998 18.045 42.177 30.131 69.542 32.641 62.059 5.692 116.983-40.002 122.675-102.061 4.284-46.698-20.531-89.352-59.519-110.034z" fill="#ffd15b"/><path d="m422.568 313.187c-.142-.014-.285-.028-.427-.041-5.264-.483-9.228-4.875-9.208-10.161 0-.088 0-.175 0-.263 0-37.283-30.224-67.507-67.507-67.507-12.816 0-24.797 3.572-35.003 9.774-4.319 2.625-9.922 1.516-13.034-2.467-9.379-12.002-23.981-19.72-40.394-19.72-3.628 0-7.165.381-10.578 1.101-4.807 1.014-9.601-1.569-11.447-6.122-13.212-32.589-45.153-55.581-82.483-55.581-49.152 0-88.997 39.845-88.997 88.997 0 1.435.036 2.862.106 4.28.233 4.743-2.973 8.934-7.553 10.189-33.225 9.106-57.389 40.121-55.986 76.548 1.583 41.086 36.113 73.23 77.229 73.23h340.058c29.443 0 53.088-24.823 51.149-54.682-1.609-24.805-21.189-45.104-45.925-47.575z" fill="#c8effe"/><path d="m428.953 314.262c6.068 8.422 9.653 18.751 9.653 29.924 0 28.31-22.95 51.26-51.26 51.26-27.375 0-299.326 0-341.102 0-9.149 0-17.919-1.615-26.046-4.569 13.931 15.102 33.88 24.569 56.046 24.569h341.102c28.31 0 51.26-22.95 51.26-51.26 0-24.316-16.937-44.663-39.653-49.924z" fill="#99e6fc"/><path d="m321.115 482.686c0 11.121-9.016 20.137-20.137 20.137s-20.137-9.016-20.137-20.137c0-14.745 15.08-28.33 19.14-31.721.578-.482 1.416-.482 1.994 0 4.06 3.391 19.14 16.976 19.14 31.721z" fill="#c8effe"/><path d="m419.475 482.686c0 11.121-9.016 20.137-20.137 20.137s-20.137-9.016-20.137-20.137c0-14.745 15.079-28.33 19.14-31.721.578-.482 1.416-.482 1.994 0 4.061 3.391 19.14 16.976 19.14 31.721z" fill="#01d0fb"/><path d="m115.169 482.686c0 11.121-9.016 20.137-20.137 20.137s-20.137-9.016-20.137-20.137c0-14.745 15.08-28.33 19.14-31.721.578-.482 1.416-.482 1.994 0 4.061 3.391 19.14 16.976 19.14 31.721z" fill="#c8effe"/><path d="m213.53 482.686c0 11.121-9.016 20.137-20.137 20.137s-20.137-9.016-20.137-20.137c0-14.745 15.079-28.33 19.14-31.721.578-.482 1.416-.482 1.994 0 4.06 3.391 19.14 16.976 19.14 31.721z" fill="#01d0fb"/><g fill="#ffc344"><path d="m331.473 51.099c-.23 0-.461-.01-.694-.032-4.125-.379-7.161-4.029-6.783-8.154l1.729-18.839c.379-4.125 4.023-7.166 8.154-6.783 4.125.378 7.161 4.029 6.783 8.154l-1.729 18.839c-.357 3.891-3.627 6.815-7.46 6.815z"/><path d="m275.703 56.869c-3.208 0-6.177-2.075-7.167-5.302l-12.328-40.187c-1.215-3.96 1.011-8.155 4.971-9.37 3.958-1.215 8.154 1.01 9.369 4.97l12.328 40.187c1.215 3.96-1.011 8.155-4.971 9.37-.732.225-1.474.332-2.202.332z"/><path d="m386.15 67.397c-1.186 0-2.388-.282-3.508-.876-3.659-1.941-5.052-6.481-3.111-10.14l19.698-37.134c1.942-3.659 6.48-5.052 10.141-3.111 3.659 1.941 5.052 6.481 3.111 10.14l-19.698 37.134c-1.348 2.539-3.945 3.987-6.633 3.987z"/><path d="m456.81 152.942c-3.208 0-6.177-2.075-7.167-5.302-1.215-3.96 1.01-8.155 4.97-9.37l40.187-12.329c3.964-1.215 8.155 1.01 9.37 4.97s-1.01 8.155-4.97 9.37l-40.186 12.329c-.734.225-1.475.332-2.204.332z"/><path d="m483.413 283.09c-1.186 0-2.388-.282-3.508-.876l-37.134-19.699c-3.659-1.941-5.052-6.481-3.11-10.14 1.94-3.659 6.479-5.053 10.14-3.111l37.134 19.699c3.659 1.941 5.052 6.481 3.11 10.14-1.347 2.539-3.945 3.987-6.632 3.987z"/><path d="m190.155 127.525c-1.186 0-2.388-.282-3.508-.876l-37.135-19.699c-3.659-1.941-5.052-6.481-3.111-10.14 1.942-3.659 6.48-5.052 10.141-3.111l37.135 19.699c3.659 1.941 5.052 6.481 3.111 10.14-1.348 2.539-3.946 3.987-6.633 3.987z"/><path d="m429.668 102.743c-2.151 0-4.286-.921-5.77-2.704-2.649-3.184-2.215-7.913.969-10.562l14.543-12.099c3.185-2.649 7.914-2.215 10.562.969 2.649 3.184 2.215 7.913-.969 10.562l-14.543 12.099c-1.401 1.166-3.102 1.735-4.792 1.735z"/><path d="m481.43 210.427c-.229 0-.461-.01-.694-.032l-18.839-1.728c-4.124-.378-7.161-4.029-6.783-8.154.379-4.125 4.011-7.163 8.154-6.784l18.839 1.728c4.124.378 7.161 4.029 6.783 8.154-.357 3.892-3.627 6.816-7.46 6.816z"/><path d="m225.513 84.017c-2.151 0-4.286-.92-5.769-2.703l-12.1-14.543c-2.649-3.184-2.216-7.913.969-10.562s7.913-2.215 10.562.968l12.1 14.543c2.65 3.184 2.216 7.913-.969 10.562-1.401 1.166-3.102 1.735-4.793 1.735z"/></g></g></svg>