<svg id="Flat" height="512" viewBox="0 0 64 64" width="512" xmlns="http://www.w3.org/2000/svg"><g fill="#e9f2ff"><path d="m13 3.071a1 1 0 0 0 -1.366.366l-2.634 4.563-2.634-4.563a1 1 0 0 0 -1.366-.366 1 1 0 0 0 -.366 1.366l2.634 4.563h-5.268a1 1 0 0 0 -1 1 1 1 0 0 0 1 1h5.268l-2.634 4.563a1 1 0 0 0 .366 1.366 1 1 0 0 0 1.366-.366l2.634-4.563 2.634 4.563a1 1 0 0 0 1.366.366 1 1 0 0 0 .366-1.366l-2.634-4.563h5.268a1 1 0 0 0 1-1 1 1 0 0 0 -1-1h-5.268l2.634-4.563a1 1 0 0 0 -.366-1.366z"/><path d="m62 49.063h-5.268l2.634-4.563a1 1 0 0 0 -.366-1.366 1 1 0 0 0 -1.366.366l-2.634 4.562-2.634-4.562a1 1 0 0 0 -1.366-.366 1 1 0 0 0 -.366 1.366l2.634 4.563h-5.268a1 1 0 0 0 -1 1 1 1 0 0 0 1 1h5.267l-2.633 4.561a1 1 0 0 0 .366 1.366 1 1 0 0 0 1.366-.366l2.634-4.562 2.634 4.562a1 1 0 0 0 1.366.366 1 1 0 0 0 .366-1.366l-2.633-4.561h5.267a1 1 0 0 0 1-1 1 1 0 0 0 -1-1z"/><path d="m38.554 47.277a1 1 0 0 0 -1.224-.707l-5.064 1.357-2.314-1.336 1.766-.473a1 1 0 0 0 -.517-1.932l-3.7.991-3.664-2.115a3.583 3.583 0 0 0 0-2.124l3.663-2.115 3.7.991a1 1 0 0 0 .517-1.932l-1.766-.473 2.314-1.336 5.065 1.357a1 1 0 0 0 .517-1.932l-3.132-.839 3.106-1.793a1 1 0 0 0 .366-1.366 1 1 0 0 0 -1.365-.366l-3.106 1.793.839-3.132a1 1 0 0 0 -.707-1.225 1 1 0 0 0 -1.224.707l-1.357 5.064-2.314 1.336.473-1.766a1 1 0 0 0 -.707-1.224 1 1 0 0 0 -1.224.706l-.991 3.7-3.654 2.107a4 4 0 0 0 -1.85-1.058v-4.228l2.707-2.707a1 1 0 0 0 -1.414-1.414l-1.293 1.293v-2.672l3.707-3.707a1 1 0 0 0 -1.414-1.414l-2.293 2.293v-3.586a1 1 0 0 0 -1-1 1 1 0 0 0 -1 1v3.586l-2.293-2.293a1 1 0 0 0 -1.414 1.414l3.707 3.707v2.672l-1.293-1.293a1 1 0 0 0 -1.414 1.414l2.707 2.707v4.228a4 4 0 0 0 -1.85 1.058l-3.65-2.109-.991-3.7a1 1 0 0 0 -1.224-.706 1 1 0 0 0 -.707 1.224l.473 1.766-2.317-1.334-1.357-5.064a1 1 0 0 0 -1.224-.707 1 1 0 0 0 -.707 1.23l.839 3.132-3.106-1.798a1 1 0 0 0 -1.365.366 1 1 0 0 0 .366 1.366l3.106 1.793-3.133.841a1 1 0 0 0 .517 1.93l5.064-1.357 2.314 1.336-1.766.473a1 1 0 0 0 .518 1.932l3.7-.991 3.664 2.115a3.583 3.583 0 0 0 0 2.124l-3.664 2.115-3.7-.991a1 1 0 0 0 -.517 1.932l1.766.473-2.315 1.336-5.064-1.357a1 1 0 0 0 -1.224.707 1 1 0 0 0 .707 1.223l3.132.839-3.106 1.795a1 1 0 0 0 -.366 1.366 1 1 0 0 0 1.365.366l3.106-1.793-.839 3.132a1 1 0 0 0 .707 1.225 1 1 0 0 0 1.224-.707l1.357-5.064 2.314-1.336-.473 1.766a1 1 0 0 0 .707 1.224 1 1 0 0 0 1.224-.706l.991-3.7 3.654-2.107a4 4 0 0 0 1.85 1.058v4.228l-2.707 2.707a1 1 0 0 0 1.414 1.414l1.293-1.293v2.672l-3.707 3.707a1 1 0 0 0 1.414 1.414l2.293-2.293v3.586a1 1 0 0 0 1 1 1 1 0 0 0 1-1v-3.586l2.293 2.293a1 1 0 0 0 1.414-1.414l-3.707-3.707v-2.672l1.293 1.293a1 1 0 0 0 1.414-1.414l-2.707-2.707v-4.228a4 4 0 0 0 1.85-1.058l3.65 2.109.991 3.7a1 1 0 0 0 1.224.706 1 1 0 0 0 .707-1.224l-.473-1.766 2.314 1.336 1.357 5.064a1 1 0 0 0 1.224.707 1 1 0 0 0 .707-1.225l-.839-3.132 3.106 1.793a1 1 0 0 0 1.365-.366 1 1 0 0 0 -.366-1.366l-3.106-1.793 3.132-.839a1 1 0 0 0 .711-1.227zm-18.554-3.277a2 2 0 1 1 2-2 2 2 0 0 1 -2 2z"/><path d="m61 17.07-5.064 1.357-4.1-2.365a3.583 3.583 0 0 0 0-2.124l4.1-2.365 5.064 1.357a1 1 0 0 0 .517-1.93l-3.132-.839 1.374-.793a1 1 0 0 0 .366-1.368 1 1 0 0 0 -1.366-.366l-1.373.793.838-3.127a1 1 0 1 0 -1.932-.518l-1.356 5.059-4.086 2.359a4 4 0 0 0 -1.85-1.058v-4.728l3.707-3.707a1 1 0 0 0 -1.414-1.414l-2.293 2.293v-1.586a1 1 0 0 0 -1-1 1 1 0 0 0 -1 1v1.586l-2.293-2.293a1 1 0 0 0 -1.414 1.414l3.707 3.707v4.728a4 4 0 0 0 -1.85 1.058l-4.086-2.359-1.356-5.064a1 1 0 0 0 -1.932.518l.839 3.132-1.373-.793a1 1 0 0 0 -1.366.366 1 1 0 0 0 .366 1.366l1.374.793-3.133.841a1 1 0 0 0 .517 1.93l5.064-1.357 4.1 2.365a3.583 3.583 0 0 0 0 2.124l-4.1 2.365-5.064-1.357a1 1 0 0 0 -.517 1.93l3.132.839-1.374.793a1 1 0 0 0 -.366 1.368 1 1 0 0 0 1.366.366l1.373-.793-.839 3.132a1 1 0 0 0 1.932.518l1.356-5.064 4.087-2.359a4 4 0 0 0 1.85 1.058v4.728l-3.707 3.707a1 1 0 0 0 1.414 1.414l2.293-2.293v1.586a1 1 0 0 0 1 1 1 1 0 0 0 1-1v-1.586l2.293 2.293a1 1 0 0 0 1.414-1.414l-3.707-3.707v-4.728a4 4 0 0 0 1.85-1.058l4.086 2.359 1.356 5.064a1 1 0 1 0 1.932-.518l-.839-3.132 1.373.793a1 1 0 0 0 1.366-.366 1 1 0 0 0 -.366-1.366l-1.374-.793 3.133-.841a1 1 0 0 0 -.517-1.93zm-13-.07a2 2 0 1 1 2-2 2 2 0 0 1 -2 2z"/></g></svg>