<svg id="Capa_1" enable-background="new 0 0 512 512" height="512" viewBox="0 0 512 512" width="512" xmlns="http://www.w3.org/2000/svg"><g><g><g><path d="m370.504 85.948c-18.523-50.173-66.772-85.948-123.379-85.948-71.832 0-130.201 57.606-131.45 129.14-44.883 5.841-79.546 44.217-79.546 90.691 0 50.514 40.95 91.464 91.464 91.464h235.48c62.297 0 112.799-50.502 112.799-112.799-.001-59.799-46.536-108.721-105.368-112.548z" fill="#f9f6f6"/></g><g><path d="m370.504 85.948c-18.523-50.173-66.772-85.948-123.379-85.948-24.772 0-47.942 6.853-67.721 18.764 15.262-6.198 31.948-9.621 49.435-9.621 55.513 0 102.987 34.405 122.271 83.055.693 1.747 2.318 2.963 4.19 3.136 57.367 5.303 102.286 53.555 102.286 112.306 0 40.541-21.392 76.081-53.501 95.964 42.018-16.408 71.786-57.279 71.786-105.107 0-59.8-46.535-108.722-105.367-112.549z" fill="#dfeaef"/></g></g><g fill="#cbe2ff"><path d="m406.739 512c-14.981 0-23.367-7.883-30.105-14.217-6.083-5.718-10.887-10.235-20.142-10.235s-14.059 4.517-20.142 10.235c-6.737 6.334-15.123 14.217-30.104 14.217s-23.367-7.883-30.105-14.217c-6.083-5.718-10.887-10.235-20.142-10.235s-14.059 4.517-20.141 10.235c-6.738 6.334-15.124 14.217-30.104 14.217-14.981 0-23.367-7.883-30.105-14.217-6.083-5.718-10.887-10.235-20.142-10.235-9.254 0-14.059 4.517-20.142 10.235-6.737 6.334-15.123 14.217-30.104 14.217s-23.366-7.883-30.104-14.217c-6.083-5.718-10.888-10.235-20.142-10.235-4.223 0-7.647-3.424-7.647-7.647s3.424-7.647 7.647-7.647c15.314 0 23.799 7.976 30.618 14.385 5.983 5.624 10.708 10.066 19.629 10.066s13.646-4.442 19.629-10.066c6.818-6.409 15.303-14.385 30.617-14.385s23.799 7.976 30.617 14.385c5.983 5.624 10.708 10.066 19.629 10.066s13.646-4.442 19.629-10.066c6.818-6.409 15.303-14.385 30.617-14.385s23.799 7.976 30.617 14.385c5.983 5.624 10.708 10.066 19.629 10.066s13.646-4.442 19.629-10.066c6.818-6.409 15.303-14.385 30.617-14.385s23.799 7.976 30.617 14.385c5.983 5.624 10.708 10.066 19.629 10.066s13.646-4.442 19.629-10.066c6.818-6.409 15.303-14.385 30.618-14.385 4.223 0 7.647 3.424 7.647 7.647s-3.424 7.647-7.647 7.647c-9.254 0-14.059 4.517-20.142 10.235-6.738 6.334-15.123 14.217-30.104 14.217z"/><path d="m406.739 389.686c-14.981 0-23.367-7.883-30.105-14.217-6.083-5.718-10.887-10.234-20.142-10.234s-14.059 4.517-20.142 10.234c-6.738 6.334-15.124 14.217-30.105 14.217s-23.367-7.883-30.105-14.217c-6.083-5.718-10.887-10.234-20.142-10.234s-14.059 4.517-20.141 10.234c-6.738 6.334-15.124 14.217-30.105 14.217s-23.367-7.883-30.105-14.217c-6.083-5.718-10.887-10.234-20.142-10.234-9.254 0-14.059 4.517-20.142 10.234-6.738 6.334-15.124 14.217-30.105 14.217s-23.366-7.883-30.104-14.217c-6.083-5.718-10.888-10.234-20.142-10.234-4.223 0-7.647-3.424-7.647-7.647s3.424-7.647 7.647-7.647c15.314 0 23.799 7.976 30.618 14.385 5.983 5.624 10.708 10.066 19.629 10.066s13.646-4.442 19.629-10.066c6.818-6.409 15.303-14.385 30.617-14.385s23.799 7.976 30.617 14.385c5.983 5.624 10.708 10.066 19.629 10.066s13.646-4.442 19.629-10.066c6.818-6.409 15.303-14.385 30.617-14.385s23.799 7.976 30.617 14.385c5.983 5.624 10.708 10.066 19.629 10.066s13.646-4.442 19.629-10.066c6.818-6.409 15.303-14.385 30.617-14.385s23.799 7.976 30.617 14.385c5.983 5.624 10.708 10.066 19.629 10.066s13.646-4.442 19.629-10.066c6.818-6.409 15.303-14.385 30.618-14.385 4.223 0 7.647 3.424 7.647 7.647s-3.424 7.647-7.647 7.647c-9.254 0-14.059 4.517-20.142 10.234-6.735 6.334-15.12 14.217-30.101 14.217z"/><path d="m406.739 450.843c-14.981 0-23.367-7.883-30.105-14.217-6.083-5.718-10.887-10.234-20.142-10.234s-14.059 4.516-20.142 10.234c-6.738 6.334-15.124 14.217-30.105 14.217s-23.367-7.883-30.105-14.217c-6.083-5.718-10.887-10.234-20.142-10.234s-14.059 4.516-20.141 10.234c-6.738 6.334-15.124 14.217-30.105 14.217s-23.367-7.883-30.105-14.217c-6.083-5.718-10.887-10.234-20.142-10.234-9.254 0-14.059 4.516-20.142 10.234-6.738 6.334-15.124 14.217-30.105 14.217s-23.366-7.883-30.104-14.217c-6.083-5.718-10.888-10.234-20.142-10.234-4.223 0-7.647-3.424-7.647-7.647s3.424-7.647 7.647-7.647c15.314 0 23.799 7.976 30.618 14.385 5.983 5.624 10.708 10.066 19.629 10.066s13.646-4.442 19.629-10.066c6.818-6.409 15.303-14.385 30.617-14.385s23.799 7.976 30.617 14.385c5.983 5.624 10.708 10.066 19.629 10.066s13.646-4.442 19.629-10.066c6.818-6.409 15.303-14.385 30.617-14.385s23.799 7.976 30.617 14.385c5.983 5.624 10.708 10.066 19.629 10.066s13.646-4.442 19.629-10.066c6.818-6.409 15.303-14.385 30.617-14.385s23.799 7.976 30.617 14.385c5.983 5.624 10.708 10.066 19.629 10.066s13.646-4.442 19.629-10.066c6.818-6.409 15.303-14.385 30.618-14.385 4.223 0 7.647 3.424 7.647 7.647s-3.424 7.647-7.647 7.647c-9.254 0-14.059 4.516-20.142 10.234-6.735 6.334-15.12 14.217-30.101 14.217z"/></g></g></svg>